<mxfile host="app.diagrams.net" modified="2021-02-20T02:11:01.369Z" agent="5.0 (Windows NT 10.0; Win64; x64) AppleWebKit/537.36 (KHTML, like Gecko) Chrome/88.0.4324.182 Safari/537.36" etag="tGP8m0WEh3hfE5XqGxXn" version="14.4.2" type="github">
  <diagram name="Page-1" id="4fc8d65c-f3f6-feb3-4d1c-02f59d9f9886">
    <mxGraphModel dx="1422" dy="774" grid="1" gridSize="10" guides="1" tooltips="1" connect="1" arrows="1" fold="1" page="1" pageScale="1" pageWidth="826" pageHeight="1169" background="#ffffff" math="0" shadow="0">
      <root>
        <mxCell id="0" />
        <mxCell id="1" parent="0" />
        <mxCell id="fDX6BxyX9Kbmln29vvni-264" value="" style="rounded=1;whiteSpace=wrap;html=1;fillColor=#f5f5f5;strokeColor=#666666;fontColor=#333333;" vertex="1" parent="1">
          <mxGeometry x="200" y="80" width="400" height="80" as="geometry" />
        </mxCell>
        <mxCell id="fDX6BxyX9Kbmln29vvni-265" value="Application plane" style="text;html=1;resizable=0;autosize=1;align=center;verticalAlign=middle;points=[];fillColor=none;strokeColor=none;rounded=0;" vertex="1" parent="1">
          <mxGeometry x="200" y="140" width="110" height="20" as="geometry" />
        </mxCell>
        <mxCell id="fDX6BxyX9Kbmln29vvni-267" value="" style="rounded=1;whiteSpace=wrap;html=1;fillColor=#d5e8d4;strokeColor=#82b366;" vertex="1" parent="1">
          <mxGeometry x="335" y="90" width="60" height="60" as="geometry" />
        </mxCell>
        <mxCell id="fDX6BxyX9Kbmln29vvni-268" value="" style="pointerEvents=1;shadow=0;dashed=0;html=1;strokeColor=none;labelPosition=center;verticalLabelPosition=bottom;verticalAlign=top;align=center;fillColor=#505050;shape=mxgraph.mscae.intune.intune_managed_app" vertex="1" parent="1">
          <mxGeometry x="347.5" y="100" width="35" height="28" as="geometry" />
        </mxCell>
        <mxCell id="fDX6BxyX9Kbmln29vvni-269" value="App 1" style="text;html=1;resizable=0;autosize=1;align=center;verticalAlign=middle;points=[];fillColor=none;strokeColor=none;rounded=0;" vertex="1" parent="1">
          <mxGeometry x="340" y="128" width="50" height="20" as="geometry" />
        </mxCell>
        <mxCell id="fDX6BxyX9Kbmln29vvni-270" value="" style="rounded=1;whiteSpace=wrap;html=1;fillColor=#d5e8d4;strokeColor=#82b366;" vertex="1" parent="1">
          <mxGeometry x="405" y="90" width="60" height="60" as="geometry" />
        </mxCell>
        <mxCell id="fDX6BxyX9Kbmln29vvni-271" value="" style="pointerEvents=1;shadow=0;dashed=0;html=1;strokeColor=none;labelPosition=center;verticalLabelPosition=bottom;verticalAlign=top;align=center;fillColor=#505050;shape=mxgraph.mscae.intune.intune_managed_app" vertex="1" parent="1">
          <mxGeometry x="417.5" y="100" width="35" height="28" as="geometry" />
        </mxCell>
        <mxCell id="fDX6BxyX9Kbmln29vvni-272" value="App 2" style="text;html=1;resizable=0;autosize=1;align=center;verticalAlign=middle;points=[];fillColor=none;strokeColor=none;rounded=0;" vertex="1" parent="1">
          <mxGeometry x="410" y="128" width="50" height="20" as="geometry" />
        </mxCell>
        <mxCell id="fDX6BxyX9Kbmln29vvni-273" value="" style="rounded=1;whiteSpace=wrap;html=1;fillColor=#d5e8d4;strokeColor=#82b366;" vertex="1" parent="1">
          <mxGeometry x="520" y="90" width="60" height="60" as="geometry" />
        </mxCell>
        <mxCell id="fDX6BxyX9Kbmln29vvni-274" value="" style="pointerEvents=1;shadow=0;dashed=0;html=1;strokeColor=none;labelPosition=center;verticalLabelPosition=bottom;verticalAlign=top;align=center;fillColor=#505050;shape=mxgraph.mscae.intune.intune_managed_app" vertex="1" parent="1">
          <mxGeometry x="532.5" y="100" width="35" height="28" as="geometry" />
        </mxCell>
        <mxCell id="fDX6BxyX9Kbmln29vvni-275" value="App n" style="text;html=1;resizable=0;autosize=1;align=center;verticalAlign=middle;points=[];fillColor=none;strokeColor=none;rounded=0;" vertex="1" parent="1">
          <mxGeometry x="525" y="128" width="50" height="20" as="geometry" />
        </mxCell>
        <mxCell id="fDX6BxyX9Kbmln29vvni-276" value="" style="shape=image;html=1;verticalAlign=top;verticalLabelPosition=bottom;labelBackgroundColor=#ffffff;imageAspect=0;aspect=fixed;image=https://cdn1.iconfinder.com/data/icons/jumpicon-basic-ui-glyph-1/32/-_Dot-More-Option-Menu-128.png" vertex="1" parent="1">
          <mxGeometry x="480" y="110" width="30" height="30" as="geometry" />
        </mxCell>
        <mxCell id="fDX6BxyX9Kbmln29vvni-281" style="edgeStyle=orthogonalEdgeStyle;rounded=0;orthogonalLoop=1;jettySize=auto;html=1;entryX=0.5;entryY=1;entryDx=0;entryDy=0;startArrow=classic;startFill=1;" edge="1" parent="1" source="fDX6BxyX9Kbmln29vvni-277" target="fDX6BxyX9Kbmln29vvni-264">
          <mxGeometry relative="1" as="geometry" />
        </mxCell>
        <mxCell id="fDX6BxyX9Kbmln29vvni-277" value="" style="rounded=1;whiteSpace=wrap;html=1;fillColor=#f5f5f5;strokeColor=#666666;fontColor=#333333;" vertex="1" parent="1">
          <mxGeometry x="200" y="210" width="400" height="80" as="geometry" />
        </mxCell>
        <mxCell id="fDX6BxyX9Kbmln29vvni-278" value="Control plane" style="text;html=1;resizable=0;autosize=1;align=center;verticalAlign=middle;points=[];fillColor=none;strokeColor=none;rounded=0;" vertex="1" parent="1">
          <mxGeometry x="200" y="270" width="90" height="20" as="geometry" />
        </mxCell>
        <mxCell id="fDX6BxyX9Kbmln29vvni-279" value="Network Controller" style="text;html=1;resizable=0;autosize=1;align=center;verticalAlign=middle;points=[];fillColor=none;strokeColor=none;rounded=0;" vertex="1" parent="1">
          <mxGeometry x="237.5" y="240" width="110" height="20" as="geometry" />
        </mxCell>
        <mxCell id="fDX6BxyX9Kbmln29vvni-280" value="SDN Controller" style="rounded=1;whiteSpace=wrap;html=1;fillColor=#dae8fc;strokeColor=#6c8ebf;" vertex="1" parent="1">
          <mxGeometry x="412.5" y="220" width="120" height="60" as="geometry" />
        </mxCell>
        <mxCell id="fDX6BxyX9Kbmln29vvni-282" value="Controller - Application&lt;br&gt;Interface" style="text;html=1;resizable=0;autosize=1;align=center;verticalAlign=middle;points=[];fillColor=none;strokeColor=none;rounded=0;" vertex="1" parent="1">
          <mxGeometry x="262.5" y="170" width="140" height="30" as="geometry" />
        </mxCell>
        <mxCell id="fDX6BxyX9Kbmln29vvni-283" value="" style="rounded=1;whiteSpace=wrap;html=1;fillColor=#f5f5f5;strokeColor=#666666;fontColor=#333333;" vertex="1" parent="1">
          <mxGeometry x="200" y="340" width="400" height="90" as="geometry" />
        </mxCell>
        <mxCell id="fDX6BxyX9Kbmln29vvni-286" style="edgeStyle=orthogonalEdgeStyle;rounded=0;orthogonalLoop=1;jettySize=auto;html=1;entryX=0.5;entryY=1;entryDx=0;entryDy=0;startArrow=classic;startFill=1;" edge="1" parent="1">
          <mxGeometry relative="1" as="geometry">
            <mxPoint x="399.66000000000025" y="340" as="sourcePoint" />
            <mxPoint x="399.66000000000025" y="290" as="targetPoint" />
          </mxGeometry>
        </mxCell>
        <mxCell id="fDX6BxyX9Kbmln29vvni-300" style="edgeStyle=none;rounded=0;orthogonalLoop=1;jettySize=auto;html=1;exitX=1;exitY=0.5;exitDx=0;exitDy=0;startArrow=none;startFill=0;endArrow=none;endFill=0;" edge="1" parent="1" source="fDX6BxyX9Kbmln29vvni-288" target="fDX6BxyX9Kbmln29vvni-290">
          <mxGeometry relative="1" as="geometry" />
        </mxCell>
        <mxCell id="fDX6BxyX9Kbmln29vvni-288" value="" style="image;html=1;image=img/lib/clip_art/networking/Router_Icon_128x128.png" vertex="1" parent="1">
          <mxGeometry x="320" y="350" width="37" height="40" as="geometry" />
        </mxCell>
        <mxCell id="fDX6BxyX9Kbmln29vvni-298" style="edgeStyle=none;rounded=0;orthogonalLoop=1;jettySize=auto;html=1;exitX=1;exitY=0.5;exitDx=0;exitDy=0;startArrow=none;startFill=0;endArrow=none;endFill=0;" edge="1" parent="1" source="fDX6BxyX9Kbmln29vvni-289" target="fDX6BxyX9Kbmln29vvni-291">
          <mxGeometry relative="1" as="geometry" />
        </mxCell>
        <mxCell id="fDX6BxyX9Kbmln29vvni-299" style="edgeStyle=none;rounded=0;orthogonalLoop=1;jettySize=auto;html=1;exitX=0;exitY=0.25;exitDx=0;exitDy=0;entryX=1;entryY=0.5;entryDx=0;entryDy=0;startArrow=none;startFill=0;endArrow=none;endFill=0;" edge="1" parent="1" source="fDX6BxyX9Kbmln29vvni-289" target="fDX6BxyX9Kbmln29vvni-288">
          <mxGeometry relative="1" as="geometry" />
        </mxCell>
        <mxCell id="fDX6BxyX9Kbmln29vvni-289" value="" style="image;html=1;image=img/lib/clip_art/networking/Router_Icon_128x128.png" vertex="1" parent="1">
          <mxGeometry x="381.5" y="390" width="37" height="40" as="geometry" />
        </mxCell>
        <mxCell id="fDX6BxyX9Kbmln29vvni-297" style="edgeStyle=none;rounded=0;orthogonalLoop=1;jettySize=auto;html=1;exitX=0;exitY=0.75;exitDx=0;exitDy=0;startArrow=none;startFill=0;endArrow=none;endFill=0;" edge="1" parent="1" source="fDX6BxyX9Kbmln29vvni-290" target="fDX6BxyX9Kbmln29vvni-289">
          <mxGeometry relative="1" as="geometry" />
        </mxCell>
        <mxCell id="fDX6BxyX9Kbmln29vvni-290" value="" style="image;html=1;image=img/lib/clip_art/networking/Router_Icon_128x128.png" vertex="1" parent="1">
          <mxGeometry x="445" y="350" width="37" height="40" as="geometry" />
        </mxCell>
        <mxCell id="fDX6BxyX9Kbmln29vvni-296" style="edgeStyle=none;rounded=0;orthogonalLoop=1;jettySize=auto;html=1;exitX=0.25;exitY=0;exitDx=0;exitDy=0;entryX=1;entryY=0.75;entryDx=0;entryDy=0;startArrow=none;startFill=0;endArrow=none;endFill=0;" edge="1" parent="1" source="fDX6BxyX9Kbmln29vvni-291" target="fDX6BxyX9Kbmln29vvni-290">
          <mxGeometry relative="1" as="geometry" />
        </mxCell>
        <mxCell id="fDX6BxyX9Kbmln29vvni-291" value="" style="image;html=1;image=img/lib/clip_art/networking/Router_Icon_128x128.png" vertex="1" parent="1">
          <mxGeometry x="500" y="390" width="37" height="40" as="geometry" />
        </mxCell>
        <mxCell id="fDX6BxyX9Kbmln29vvni-295" style="edgeStyle=none;rounded=0;orthogonalLoop=1;jettySize=auto;html=1;exitX=0;exitY=0.75;exitDx=0;exitDy=0;entryX=1;entryY=0.25;entryDx=0;entryDy=0;startArrow=none;startFill=0;endArrow=none;endFill=0;" edge="1" parent="1" source="fDX6BxyX9Kbmln29vvni-292" target="fDX6BxyX9Kbmln29vvni-291">
          <mxGeometry relative="1" as="geometry" />
        </mxCell>
        <mxCell id="fDX6BxyX9Kbmln29vvni-292" value="" style="image;html=1;image=img/lib/clip_art/networking/Router_Icon_128x128.png" vertex="1" parent="1">
          <mxGeometry x="550" y="350" width="37" height="40" as="geometry" />
        </mxCell>
        <mxCell id="fDX6BxyX9Kbmln29vvni-301" value="Data plane" style="text;html=1;resizable=0;autosize=1;align=center;verticalAlign=middle;points=[];fillColor=none;strokeColor=none;rounded=0;" vertex="1" parent="1">
          <mxGeometry x="210" y="410" width="70" height="20" as="geometry" />
        </mxCell>
        <mxCell id="fDX6BxyX9Kbmln29vvni-302" value="Controller - Data&lt;br&gt;Interface" style="text;html=1;resizable=0;autosize=1;align=center;verticalAlign=middle;points=[];fillColor=none;strokeColor=none;rounded=0;" vertex="1" parent="1">
          <mxGeometry x="295" y="300" width="100" height="30" as="geometry" />
        </mxCell>
        <mxCell id="fDX6BxyX9Kbmln29vvni-303" value="Programmable Switches" style="text;html=1;resizable=0;autosize=1;align=center;verticalAlign=middle;points=[];fillColor=none;strokeColor=none;rounded=0;" vertex="1" parent="1">
          <mxGeometry x="217.5" y="380" width="150" height="20" as="geometry" />
        </mxCell>
        <mxCell id="fDX6BxyX9Kbmln29vvni-304" value="Network Applications" style="text;html=1;resizable=0;autosize=1;align=center;verticalAlign=middle;points=[];fillColor=none;strokeColor=none;rounded=0;" vertex="1" parent="1">
          <mxGeometry x="205" y="110" width="130" height="20" as="geometry" />
        </mxCell>
      </root>
    </mxGraphModel>
  </diagram>
</mxfile>
